<svg xmlns="http://www.w3.org/2000/svg" viewBox="0 0 120 250" role="img" aria-label="Zahn 11">
  <defs>
    <linearGradient id="enamel" x1="0" y1="0" x2="0.85" y2="1">
      <stop offset="0" stop-color="#fffdf4"/><stop offset=".52" stop-color="#f0dec1"/><stop offset="1" stop-color="#c79b69"/>
    </linearGradient>
    <linearGradient id="root" x1="0" y1="0" x2="1" y2="0">
      <stop offset="0" stop-color="#79513e"/><stop offset=".45" stop-color="#d5a074"/><stop offset="1" stop-color="#704637"/>
    </linearGradient>
    <linearGradient id="rootDark" x1="0" y1="0" x2="1" y2="0">
      <stop offset="0" stop-color="#54372c"/><stop offset=".5" stop-color="#a2714f"/><stop offset="1" stop-color="#4c3127"/>
    </linearGradient>
    <filter id="shadow" x="-30%" y="-20%" width="170%" height="160%">
      <feDropShadow dx="1.5" dy="2.5" stdDeviation="1.7" flood-color="#342016" flood-opacity=".32"/>
    </filter>
  </defs>
  <g transform="translate(0 250) scale(1 -1)" filter="url(#shadow)">
    <g class="tooth-roots"><path class="root" d="M45.7 93 C45.3 150.6 50.8 198.7 58 213 C65.2 198.7 74 150.6 74.3 93 Z" fill="url(#root)"/></g>
    <path class="tooth-crown" d="M33.5 40 Q42 36 51 39 Q60 35 68.5 39 Q78 36 86.5 40 C87.5 68 81.4 86 76.4 96 Q60 101 43.6 96 C38.6 86 32.5 68 33.5 40 Z" fill="url(#enamel)" stroke="#5b3f30" stroke-width="1.6" stroke-linejoin="round"/>
    <path class="tooth-anatomy" d="M46.8 43 Q48.3 62 50.5 76 M73.3 43 Q71.7 62 69.5 76" fill="none" stroke="#7b5a43" stroke-width="1.15" stroke-linecap="round" opacity=".48"/>
    <path class="tooth-highlight" d="M45.2 49 C42 62 43.6 75 46.2 82" fill="none" stroke="#fffdf3" stroke-width="3.2" stroke-linecap="round" opacity=".56"/>
  </g>
</svg>
